<mxfile host="app.diagrams.net" agent="Mozilla/5.0 (X11; Linux x86_64) AppleWebKit/537.36 (KHTML, like Gecko) Chrome/139.0.0.0 Safari/537.36" version="28.1.2">
  <diagram name="Página-1" id="iFl6hXDzh-JF7TrVmD0I">
    <mxGraphModel dx="1683" dy="376" grid="1" gridSize="10" guides="1" tooltips="1" connect="1" arrows="1" fold="1" page="1" pageScale="1" pageWidth="827" pageHeight="1169" math="0" shadow="0">
      <root>
        <mxCell id="0" />
        <mxCell id="1" parent="0" />
        <mxCell id="KFZhrZQ9VaH4DLNhq1C5-14" style="edgeStyle=orthogonalEdgeStyle;rounded=0;orthogonalLoop=1;jettySize=auto;html=1;" edge="1" parent="1" source="8GikDZT6JXc9B3at_0_J-1" target="KFZhrZQ9VaH4DLNhq1C5-1">
          <mxGeometry relative="1" as="geometry">
            <Array as="points">
              <mxPoint x="315" y="220" />
            </Array>
          </mxGeometry>
        </mxCell>
        <mxCell id="KFZhrZQ9VaH4DLNhq1C5-16" value="N" style="edgeLabel;html=1;align=center;verticalAlign=middle;resizable=0;points=[];" vertex="1" connectable="0" parent="KFZhrZQ9VaH4DLNhq1C5-14">
          <mxGeometry x="-0.9125" relative="1" as="geometry">
            <mxPoint x="13" as="offset" />
          </mxGeometry>
        </mxCell>
        <mxCell id="KFZhrZQ9VaH4DLNhq1C5-17" value="1" style="edgeLabel;html=1;align=center;verticalAlign=middle;resizable=0;points=[];" vertex="1" connectable="0" parent="KFZhrZQ9VaH4DLNhq1C5-14">
          <mxGeometry x="0.8364" y="3" relative="1" as="geometry">
            <mxPoint as="offset" />
          </mxGeometry>
        </mxCell>
        <mxCell id="8GikDZT6JXc9B3at_0_J-1" value="User" style="rounded=0;whiteSpace=wrap;html=1;fillColor=#FFFFCC;" parent="1" vertex="1">
          <mxGeometry x="120" y="220" width="70" height="40" as="geometry" />
        </mxCell>
        <mxCell id="8GikDZT6JXc9B3at_0_J-11" style="edgeStyle=orthogonalEdgeStyle;rounded=0;orthogonalLoop=1;jettySize=auto;html=1;" parent="1" source="8GikDZT6JXc9B3at_0_J-2" target="8GikDZT6JXc9B3at_0_J-7" edge="1">
          <mxGeometry relative="1" as="geometry" />
        </mxCell>
        <mxCell id="8GikDZT6JXc9B3at_0_J-12" value="N" style="edgeLabel;html=1;align=center;verticalAlign=middle;resizable=0;points=[];" parent="8GikDZT6JXc9B3at_0_J-11" vertex="1" connectable="0">
          <mxGeometry x="-0.74" relative="1" as="geometry">
            <mxPoint as="offset" />
          </mxGeometry>
        </mxCell>
        <mxCell id="8GikDZT6JXc9B3at_0_J-14" value="1" style="edgeLabel;html=1;align=center;verticalAlign=middle;resizable=0;points=[];" parent="8GikDZT6JXc9B3at_0_J-11" vertex="1" connectable="0">
          <mxGeometry x="0.46" y="-1" relative="1" as="geometry">
            <mxPoint as="offset" />
          </mxGeometry>
        </mxCell>
        <mxCell id="8GikDZT6JXc9B3at_0_J-2" value="Pedidos" style="rounded=0;whiteSpace=wrap;html=1;fillColor=#CCCCCC;" parent="1" vertex="1">
          <mxGeometry x="260" y="330" width="70" height="40" as="geometry" />
        </mxCell>
        <mxCell id="8GikDZT6JXc9B3at_0_J-21" style="edgeStyle=orthogonalEdgeStyle;rounded=0;orthogonalLoop=1;jettySize=auto;html=1;entryX=0.5;entryY=1;entryDx=0;entryDy=0;" parent="1" source="8GikDZT6JXc9B3at_0_J-3" target="8GikDZT6JXc9B3at_0_J-20" edge="1">
          <mxGeometry relative="1" as="geometry" />
        </mxCell>
        <mxCell id="8GikDZT6JXc9B3at_0_J-22" value="N" style="edgeLabel;html=1;align=center;verticalAlign=middle;resizable=0;points=[];" parent="8GikDZT6JXc9B3at_0_J-21" vertex="1" connectable="0">
          <mxGeometry x="-0.8216" y="1" relative="1" as="geometry">
            <mxPoint as="offset" />
          </mxGeometry>
        </mxCell>
        <mxCell id="8GikDZT6JXc9B3at_0_J-24" value="1" style="edgeLabel;html=1;align=center;verticalAlign=middle;resizable=0;points=[];" parent="8GikDZT6JXc9B3at_0_J-21" vertex="1" connectable="0">
          <mxGeometry x="0.573" relative="1" as="geometry">
            <mxPoint as="offset" />
          </mxGeometry>
        </mxCell>
        <mxCell id="KFZhrZQ9VaH4DLNhq1C5-8" style="edgeStyle=orthogonalEdgeStyle;rounded=0;orthogonalLoop=1;jettySize=auto;html=1;" edge="1" parent="1" source="8GikDZT6JXc9B3at_0_J-3" target="KFZhrZQ9VaH4DLNhq1C5-7">
          <mxGeometry relative="1" as="geometry">
            <Array as="points">
              <mxPoint x="335" y="240" />
            </Array>
          </mxGeometry>
        </mxCell>
        <mxCell id="KFZhrZQ9VaH4DLNhq1C5-10" value="N" style="edgeLabel;html=1;align=center;verticalAlign=middle;resizable=0;points=[];" vertex="1" connectable="0" parent="KFZhrZQ9VaH4DLNhq1C5-8">
          <mxGeometry x="0.5578" y="-1" relative="1" as="geometry">
            <mxPoint as="offset" />
          </mxGeometry>
        </mxCell>
        <mxCell id="8GikDZT6JXc9B3at_0_J-3" value="Produtos" style="rounded=0;whiteSpace=wrap;html=1;fillColor=#CCCCCC;" parent="1" vertex="1">
          <mxGeometry x="400" y="210" width="70" height="40" as="geometry" />
        </mxCell>
        <mxCell id="8GikDZT6JXc9B3at_0_J-4" value="- Nome&lt;div&gt;- &lt;u&gt;Imagem&lt;/u&gt;&lt;/div&gt;&lt;div&gt;- Descrição&lt;/div&gt;&lt;div&gt;- Preço&lt;/div&gt;&lt;div&gt;- is_disponivel&lt;/div&gt;" style="text;html=1;align=center;verticalAlign=middle;whiteSpace=wrap;rounded=0;" parent="1" vertex="1">
          <mxGeometry x="460" y="210" width="130" height="70" as="geometry" />
        </mxCell>
        <mxCell id="8GikDZT6JXc9B3at_0_J-5" value="&lt;div&gt;- Cliente&lt;/div&gt;&lt;div&gt;- Status do Pedido&lt;/div&gt;&lt;div&gt;- Produtos&lt;/div&gt;&lt;div&gt;- Valor total pedido&lt;/div&gt;" style="text;html=1;align=center;verticalAlign=middle;whiteSpace=wrap;rounded=0;" parent="1" vertex="1">
          <mxGeometry x="330" y="330" width="130" height="40" as="geometry" />
        </mxCell>
        <mxCell id="8GikDZT6JXc9B3at_0_J-7" value="Clientes" style="rounded=0;whiteSpace=wrap;html=1;fillColor=#CCCCCC;" parent="1" vertex="1">
          <mxGeometry x="260" y="430" width="70" height="40" as="geometry" />
        </mxCell>
        <mxCell id="8GikDZT6JXc9B3at_0_J-8" value="- Nome do Cliente&lt;div&gt;- Telefone do Cliente&lt;/div&gt;&lt;div&gt;- Endereço do Cliente&lt;/div&gt;" style="text;html=1;align=center;verticalAlign=middle;whiteSpace=wrap;rounded=0;" parent="1" vertex="1">
          <mxGeometry x="320" y="420" width="150" height="60" as="geometry" />
        </mxCell>
        <mxCell id="8GikDZT6JXc9B3at_0_J-18" style="edgeStyle=orthogonalEdgeStyle;rounded=0;orthogonalLoop=1;jettySize=auto;html=1;" parent="1" source="8GikDZT6JXc9B3at_0_J-17" target="8GikDZT6JXc9B3at_0_J-2" edge="1">
          <mxGeometry relative="1" as="geometry" />
        </mxCell>
        <mxCell id="8GikDZT6JXc9B3at_0_J-17" value="Status&amp;nbsp;&lt;div&gt;Pedido&lt;/div&gt;" style="rounded=0;whiteSpace=wrap;html=1;fillColor=#CCCCCC;" parent="1" vertex="1">
          <mxGeometry x="130" y="335" width="70" height="30" as="geometry" />
        </mxCell>
        <mxCell id="8GikDZT6JXc9B3at_0_J-20" value="Categoria" style="rounded=0;whiteSpace=wrap;html=1;fillColor=#CCCCCC;" parent="1" vertex="1">
          <mxGeometry x="414" y="120" width="70" height="40" as="geometry" />
        </mxCell>
        <mxCell id="8GikDZT6JXc9B3at_0_J-25" value="- Nome" style="text;html=1;align=center;verticalAlign=middle;whiteSpace=wrap;rounded=0;" parent="1" vertex="1">
          <mxGeometry x="484" y="120" width="60" height="25" as="geometry" />
        </mxCell>
        <mxCell id="KFZhrZQ9VaH4DLNhq1C5-3" style="edgeStyle=orthogonalEdgeStyle;rounded=0;orthogonalLoop=1;jettySize=auto;html=1;entryX=0;entryY=0.5;entryDx=0;entryDy=0;" edge="1" parent="1" source="KFZhrZQ9VaH4DLNhq1C5-1" target="8GikDZT6JXc9B3at_0_J-3">
          <mxGeometry relative="1" as="geometry" />
        </mxCell>
        <mxCell id="KFZhrZQ9VaH4DLNhq1C5-4" value="N" style="edgeLabel;html=1;align=center;verticalAlign=middle;resizable=0;points=[];" vertex="1" connectable="0" parent="KFZhrZQ9VaH4DLNhq1C5-3">
          <mxGeometry x="0.757" y="-1" relative="1" as="geometry">
            <mxPoint as="offset" />
          </mxGeometry>
        </mxCell>
        <mxCell id="KFZhrZQ9VaH4DLNhq1C5-5" value="1" style="edgeLabel;html=1;align=center;verticalAlign=middle;resizable=0;points=[];" vertex="1" connectable="0" parent="KFZhrZQ9VaH4DLNhq1C5-3">
          <mxGeometry x="-0.8161" y="1" relative="1" as="geometry">
            <mxPoint as="offset" />
          </mxGeometry>
        </mxCell>
        <mxCell id="KFZhrZQ9VaH4DLNhq1C5-1" value="Restaurante" style="rounded=0;whiteSpace=wrap;html=1;fillColor=#CCCCCC;" vertex="1" parent="1">
          <mxGeometry x="280" y="145" width="70" height="40" as="geometry" />
        </mxCell>
        <mxCell id="KFZhrZQ9VaH4DLNhq1C5-2" value="- Nome fantasia&lt;div&gt;- Razão Social&lt;br&gt;&lt;div&gt;- Telefone&lt;/div&gt;&lt;div&gt;- Endereço&lt;/div&gt;&lt;/div&gt;" style="text;html=1;align=center;verticalAlign=middle;whiteSpace=wrap;rounded=0;" vertex="1" parent="1">
          <mxGeometry x="150" y="130" width="130" height="70" as="geometry" />
        </mxCell>
        <mxCell id="KFZhrZQ9VaH4DLNhq1C5-7" value="pedidos_&lt;div&gt;produtos&lt;/div&gt;" style="rounded=0;whiteSpace=wrap;html=1;fillColor=#CCCCCC;" vertex="1" parent="1">
          <mxGeometry x="300" y="260" width="70" height="40" as="geometry" />
        </mxCell>
        <mxCell id="KFZhrZQ9VaH4DLNhq1C5-9" style="edgeStyle=orthogonalEdgeStyle;rounded=0;orthogonalLoop=1;jettySize=auto;html=1;entryX=0.515;entryY=0.939;entryDx=0;entryDy=0;entryPerimeter=0;" edge="1" parent="1" source="8GikDZT6JXc9B3at_0_J-2" target="KFZhrZQ9VaH4DLNhq1C5-7">
          <mxGeometry relative="1" as="geometry" />
        </mxCell>
        <mxCell id="KFZhrZQ9VaH4DLNhq1C5-11" value="N" style="edgeLabel;html=1;align=center;verticalAlign=middle;resizable=0;points=[];" vertex="1" connectable="0" parent="KFZhrZQ9VaH4DLNhq1C5-9">
          <mxGeometry x="0.3644" y="1" relative="1" as="geometry">
            <mxPoint as="offset" />
          </mxGeometry>
        </mxCell>
        <mxCell id="KFZhrZQ9VaH4DLNhq1C5-12" value="- Quantidade&lt;div&gt;- Valor Unit&lt;/div&gt;&lt;div&gt;- Valor Total&lt;/div&gt;" style="text;html=1;align=center;verticalAlign=middle;whiteSpace=wrap;rounded=0;" vertex="1" parent="1">
          <mxGeometry x="170" y="250" width="130" height="40" as="geometry" />
        </mxCell>
        <mxCell id="KFZhrZQ9VaH4DLNhq1C5-13" value="- Perfil: Admin | Restaurante | Cliente" style="text;html=1;align=center;verticalAlign=middle;whiteSpace=wrap;rounded=0;" vertex="1" parent="1">
          <mxGeometry x="-10" y="220" width="130" height="40" as="geometry" />
        </mxCell>
        <mxCell id="KFZhrZQ9VaH4DLNhq1C5-15" style="edgeStyle=orthogonalEdgeStyle;rounded=0;orthogonalLoop=1;jettySize=auto;html=1;entryX=-0.007;entryY=0.634;entryDx=0;entryDy=0;entryPerimeter=0;" edge="1" parent="1" source="8GikDZT6JXc9B3at_0_J-1" target="8GikDZT6JXc9B3at_0_J-7">
          <mxGeometry relative="1" as="geometry">
            <Array as="points">
              <mxPoint x="155" y="300" />
              <mxPoint x="225" y="300" />
              <mxPoint x="225" y="455" />
            </Array>
          </mxGeometry>
        </mxCell>
        <mxCell id="KFZhrZQ9VaH4DLNhq1C5-18" value="1" style="edgeLabel;html=1;align=center;verticalAlign=middle;resizable=0;points=[];" vertex="1" connectable="0" parent="KFZhrZQ9VaH4DLNhq1C5-15">
          <mxGeometry x="-0.9036" relative="1" as="geometry">
            <mxPoint as="offset" />
          </mxGeometry>
        </mxCell>
        <mxCell id="KFZhrZQ9VaH4DLNhq1C5-19" value="1" style="edgeLabel;html=1;align=center;verticalAlign=middle;resizable=0;points=[];" vertex="1" connectable="0" parent="KFZhrZQ9VaH4DLNhq1C5-15">
          <mxGeometry x="0.8469" relative="1" as="geometry">
            <mxPoint as="offset" />
          </mxGeometry>
        </mxCell>
      </root>
    </mxGraphModel>
  </diagram>
</mxfile>
